<?xml version="1.0" standalone="no"?>
<!DOCTYPE svg PUBLIC "-//W3C//DTD SVG 20010904//EN"
 "http://www.w3.org/TR/2001/REC-SVG-20010904/DTD/svg10.dtd">
<svg version="1.0" xmlns="http://www.w3.org/2000/svg"
 width="2442.000000pt" height="678.000000pt" viewBox="0 0 2442.000000 678.000000"
 preserveAspectRatio="xMidYMid meet">

<g transform="translate(0.000000,678.000000) scale(0.100000,-0.100000)"
fill="#000000" stroke="none">
<path d="M7570 3570 c0 -2704 2 -3050 15 -3050 13 0 15 346 15 3050 0 2704 -2
3050 -15 3050 -13 0 -15 -346 -15 -3050z"/>
<path d="M3120 6469 c246 -332 413 -764 470 -1219 28 -227 30 -570 4 -825 l-7
-70 42 50 c164 196 377 556 501 849 42 98 43 101 37 185 -15 228 -142 477
-338 667 -177 170 -434 325 -685 414 l-83 29 59 -80z"/>
<path d="M5735 6516 c-271 -98 -542 -270 -713 -451 -178 -188 -284 -412 -299
-631 -5 -78 -4 -84 36 -179 126 -295 303 -598 476 -815 l67 -85 -7 75 c-25
254 -21 623 10 846 64 469 232 891 482 1217 24 31 43 57 41 57 -2 -1 -43 -16
-93 -34z"/>
<path d="M18095 5899 c-500 -48 -968 -288 -1291 -662 -266 -309 -428 -668
-480 -1060 -20 -148 -14 -446 10 -577 39 -209 85 -347 176 -535 113 -233 236
-402 426 -585 273 -262 612 -434 999 -506 81 -15 147 -19 345 -19 228 1 254 3
375 28 402 86 755 280 1028 566 511 537 686 1304 456 1996 -143 430 -422 793
-801 1042 -365 240 -814 352 -1243 312z m421 -574 c113 -20 268 -72 375 -125
393 -198 664 -550 761 -988 31 -141 31 -423 0 -569 -127 -587 -573 -1017
-1162 -1119 -73 -12 -134 -15 -265 -11 -147 4 -185 9 -285 35 -264 69 -474
191 -666 387 -208 213 -344 484 -391 780 -19 123 -13 382 12 495 60 268 176
491 355 683 246 263 555 415 915 451 70 7 259 -3 351 -19z"/>
<path d="M13487 5854 c-4 -4 -7 -873 -7 -1931 l0 -1923 280 0 280 0 0 639 0
639 518 5 c565 5 597 8 776 68 408 137 698 481 785 932 80 414 -17 839 -260
1142 -170 211 -394 343 -689 408 -90 19 -133 20 -885 24 -435 2 -794 1 -798
-3z m1608 -578 c233 -68 406 -245 475 -486 29 -104 37 -271 17 -376 -54 -284
-235 -488 -497 -561 -59 -16 -113 -18 -555 -18 l-490 0 -3 720 c-1 396 0 726
3 733 4 11 96 13 497 9 431 -3 501 -6 553 -21z"/>
<path d="M8410 3925 l0 -1925 280 0 280 0 0 825 0 825 770 0 770 0 0 280 0
280 -770 0 -770 0 0 545 0 545 870 0 870 0 0 275 0 275 -1150 0 -1150 0 0
-1925z"/>
<path d="M10890 3925 l0 -1925 1175 0 1175 0 0 275 0 275 -895 0 -895 0 0 550
0 550 875 0 875 0 0 280 0 280 -875 0 -875 0 0 545 0 545 895 0 895 0 0 275 0
275 -1175 0 -1175 0 0 -1925z"/>
<path d="M20580 3925 l0 -1925 1185 0 1185 0 0 275 0 275 -910 0 -910 0 0
1650 0 1650 -275 0 -275 0 0 -1925z"/>
<path d="M4146 5173 c-54 -125 -168 -347 -241 -469 -124 -205 -243 -364 -424
-564 l-50 -55 35 -115 c145 -474 246 -1033 284 -1560 15 -200 15 -682 0 -880
-21 -292 -63 -577 -121 -819 -16 -68 -28 -126 -26 -128 5 -5 137 393 176 527
291 1018 436 2272 417 3610 -3 250 -9 470 -13 488 l-8 33 -29 -68z"/>
<path d="M4707 5200 c-4 -25 -10 -241 -13 -480 -20 -1385 138 -2690 451 -3720
50 -163 143 -433 144 -419 1 4 -12 62 -28 130 -54 226 -100 538 -121 829 -13
175 -13 696 0 875 38 520 141 1082 287 1563 l34 114 -83 86 c-138 144 -292
353 -423 576 -49 83 -199 385 -232 466 -9 23 -10 22 -16 -20z"/>
<path d="M2480 4817 c-169 -38 -293 -170 -320 -342 -18 -110 19 -258 67 -270
42 -10 189 -7 235 5 199 53 360 240 384 446 l6 51 -58 42 c-91 65 -210 91
-314 68z"/>
<path d="M6260 4819 c-67 -13 -119 -36 -173 -76 l-49 -36 7 -56 c21 -164 127
-318 275 -395 81 -43 142 -57 242 -57 108 0 124 6 142 51 59 148 33 311 -69
436 -84 102 -247 160 -375 133z"/>
<path d="M2890 4631 c0 -47 -45 -175 -84 -234 -43 -69 -135 -151 -208 -188
-92 -46 -169 -62 -275 -57 -51 3 -93 1 -93 -3 0 -5 26 -35 58 -67 97 -99 234
-146 362 -124 290 52 442 345 313 608 -14 29 -36 63 -49 75 l-24 22 0 -32z"/>
<path d="M5967 4629 c-158 -208 -88 -514 145 -628 172 -85 358 -54 491 81 31
32 57 62 57 67 0 4 -42 6 -92 3 -66 -3 -111 0 -155 12 -208 53 -368 223 -406
431 l-13 69 -27 -35z"/>
<path d="M3313 3978 c-134 -125 -312 -254 -468 -338 -44 -24 -81 -45 -83 -46
-2 -1 19 -31 46 -66 389 -500 645 -1534 702 -2837 5 -129 12 -236 14 -238 2
-2 13 33 25 77 205 759 225 1705 55 2634 -47 261 -195 850 -218 873 -3 3 -35
-24 -73 -59z"/>
<path d="M5472 3937 c-81 -262 -178 -693 -222 -981 -130 -862 -97 -1746 91
-2427 l24 -84 7 80 c4 44 12 184 17 310 45 949 216 1781 482 2333 79 165 141
271 211 360 27 35 48 65 46 67 -2 1 -23 13 -48 25 -143 72 -373 235 -493 350
-41 38 -76 70 -79 70 -3 0 -19 -46 -36 -103z"/>
<path d="M2680 3555 c-108 -61 -388 -145 -550 -166 l-91 -12 6 -41 c4 -23 20
-102 37 -176 174 -773 572 -1629 1116 -2400 109 -155 248 -336 264 -346 21
-13 -8 575 -47 946 -78 735 -230 1349 -446 1800 -69 142 -194 344 -240 387
-22 19 -26 20 -49 8z"/>
<path d="M6149 3533 c-102 -117 -255 -405 -347 -653 -216 -585 -347 -1376
-378 -2275 -7 -189 -6 -199 10 -186 32 27 257 335 381 521 504 762 841 1524
1004 2269 17 77 31 146 31 154 0 11 -24 17 -90 26 -161 21 -410 95 -538 160
l-40 21 -33 -37z"/>
<path d="M8430 1430 c0 -160 4 -250 10 -250 6 0 10 47 10 120 l0 120 95 0 c57
0 95 4 95 10 0 6 -38 10 -95 10 l-95 0 0 105 0 105 95 0 c78 0 95 3 95 15 0
12 -18 15 -105 15 l-105 0 0 -250z"/>
<path d="M9390 1565 c0 -63 -4 -115 -9 -115 -5 0 -14 7 -22 16 -26 32 -71 46
-126 42 -91 -8 -153 -73 -153 -160 0 -64 24 -114 69 -143 70 -45 149 -41 211
11 l30 26 0 -31 c0 -17 5 -31 10 -31 6 0 10 90 10 250 0 160 -4 250 -10 250
-6 0 -10 -45 -10 -115z m-70 -104 c37 -27 70 -80 70 -115 0 -75 -69 -146 -142
-146 -131 0 -194 153 -99 244 50 48 118 54 171 17z"/>
<path d="M12247 1673 c-4 -3 -7 -56 -7 -116 l0 -110 -22 21 c-93 86 -249 35
-278 -91 -33 -147 132 -258 259 -174 l41 27 0 -25 c0 -16 6 -25 15 -25 13 0
15 34 15 250 0 228 -3 263 -23 243z m-105 -193 c20 -6 50 -26 67 -46 27 -30
31 -42 31 -90 0 -41 -6 -64 -21 -85 -75 -106 -238 -62 -256 69 -8 63 38 133
102 151 40 12 35 12 77 1z"/>
<path d="M12957 1673 c-4 -3 -7 -116 -7 -250 l0 -243 125 0 c104 0 125 2 125
15 0 12 -19 15 -110 15 l-110 0 0 105 0 105 110 0 c67 0 110 4 110 10 0 6 -43
10 -110 10 l-110 0 0 105 0 105 110 0 c91 0 110 3 110 15 0 12 -20 15 -118 15
-65 0 -122 -3 -125 -7z"/>
<path d="M14400 1565 l0 -114 -37 25 c-46 31 -73 38 -128 32 -54 -7 -100 -38
-125 -88 -87 -170 128 -328 267 -198 l23 21 0 -31 c0 -18 5 -32 10 -32 6 0 10
90 10 250 0 160 -4 250 -10 250 -6 0 -10 -45 -10 -115z m-67 -102 c46 -23 69
-70 64 -131 -13 -178 -277 -172 -277 7 0 117 106 178 213 124z"/>
<path d="M16460 1431 c0 -216 2 -251 15 -251 12 0 15 16 15 84 l0 83 66 6 c76
7 120 29 151 77 32 46 32 124 1 170 -41 60 -69 73 -163 78 l-85 5 0 -252z
m185 199 c57 -35 80 -112 51 -168 -30 -57 -62 -76 -136 -80 l-70 -4 0 136 0
136 61 0 c44 0 71 -6 94 -20z"/>
<path d="M17170 1430 c0 -216 2 -250 15 -250 13 0 15 34 15 250 0 216 -2 250
-15 250 -13 0 -15 -34 -15 -250z"/>
<path d="M20380 1565 l0 -115 -47 30 c-109 69 -247 9 -260 -114 -7 -60 11
-108 57 -150 66 -59 160 -57 227 6 l23 21 0 -31 c0 -18 5 -32 10 -32 6 0 10
90 10 250 0 160 -4 250 -10 250 -6 0 -10 -45 -10 -115z m-67 -102 c90 -45 87
-187 -5 -243 -134 -81 -281 100 -175 216 48 53 110 62 180 27z"/>
<path d="M20870 1430 c0 -160 4 -250 10 -250 6 0 10 90 10 250 0 160 -4 250
-10 250 -6 0 -10 -90 -10 -250z"/>
<path d="M21210 1431 l0 -251 110 0 c91 0 110 3 110 15 0 12 -17 15 -95 15
l-95 0 -2 232 c-2 174 -6 232 -15 236 -10 3 -13 -51 -13 -247z"/>
<path d="M22860 1431 c0 -218 2 -251 15 -251 13 0 15 32 13 247 -2 186 -6 247
-15 251 -10 3 -13 -51 -13 -247z"/>
<path d="M11137 1592 c-35 -39 -15 -43 33 -7 33 25 33 25 8 25 -13 0 -32 -8
-41 -18z"/>
<path d="M13588 1548 c-3 -60 -4 -63 -30 -66 -38 -4 -36 -22 2 -22 l30 0 0
-140 c0 -87 4 -140 10 -140 6 0 10 53 10 140 l0 140 35 0 c44 0 46 18 3 22
-33 3 -33 3 -36 66 -2 34 -7 62 -12 62 -5 0 -10 -28 -12 -62z"/>
<path d="M15458 1548 c-3 -60 -4 -63 -30 -66 -38 -4 -36 -22 2 -22 l30 0 0
-140 c0 -87 4 -140 10 -140 6 0 10 53 10 140 l0 140 35 0 c44 0 46 18 3 22
-33 3 -33 3 -36 66 -2 34 -7 62 -12 62 -5 0 -10 -28 -12 -62z"/>
<path d="M17470 1545 l0 -65 -30 0 c-16 0 -30 -4 -30 -10 0 -5 14 -10 30 -10
l30 0 0 -140 c0 -118 2 -140 15 -140 13 0 15 22 15 140 l0 140 30 0 c17 0 30
5 30 10 0 6 -13 10 -30 10 l-30 0 0 65 c0 51 -3 65 -15 65 -12 0 -15 -14 -15
-65z"/>
<path d="M17767 1585 c-24 -33 -2 -33 38 0 l30 25 -25 0 c-15 -1 -32 -11 -43
-25z"/>
<path d="M21688 1548 c-3 -63 -3 -63 -35 -66 -18 -2 -33 -7 -33 -12 0 -5 15
-10 33 -12 l32 -3 3 -137 c4 -185 22 -183 22 2 l0 140 30 0 c17 0 30 5 30 10
0 6 -13 10 -30 10 l-30 0 0 65 c0 83 -18 85 -22 3z"/>
<path d="M10852 1568 c2 -15 10 -23 23 -23 30 0 27 39 -3 43 -20 3 -23 0 -20
-20z"/>
<path d="M14517 1576 c-9 -22 19 -42 37 -26 19 15 10 40 -14 40 -10 0 -20 -6
-23 -14z"/>
<path d="M17292 1568 c2 -15 10 -23 23 -23 30 0 27 39 -3 43 -20 3 -23 0 -20
-20z"/>
<path d="M18702 1568 c2 -15 10 -23 23 -23 30 0 27 39 -3 43 -20 3 -23 0 -20
-20z"/>
<path d="M21504 1575 c-4 -9 -2 -21 4 -27 15 -15 44 -1 40 19 -4 23 -36 29
-44 8z"/>
<path d="M8794 1496 c-81 -35 -119 -154 -75 -233 43 -76 132 -110 206 -79 41
18 75 43 75 58 0 14 -18 9 -56 -17 -43 -29 -91 -32 -141 -8 l-35 16 114 114
c121 121 118 115 56 148 -34 19 -103 19 -144 1z m140 -28 c16 -9 7 -21 -80
-109 -53 -54 -101 -96 -106 -93 -4 3 -12 22 -18 42 -31 117 94 216 204 160z"/>
<path d="M9600 1503 c-60 -23 -110 -94 -110 -158 0 -118 121 -204 225 -160 41
17 75 42 75 57 0 15 -23 8 -48 -14 -31 -30 -131 -33 -159 -5 -17 16 -13 22 90
125 59 59 107 111 107 114 0 4 -18 17 -40 28 -37 19 -106 25 -140 13z m123
-35 c9 -5 17 -12 17 -16 0 -4 -43 -50 -96 -102 -90 -90 -96 -94 -110 -76 -18
26 -18 99 1 136 35 67 119 93 188 58z"/>
<path d="M10140 1488 c-147 -101 -89 -312 86 -312 39 0 61 6 93 27 50 33 51
33 51 2 0 -14 5 -25 10 -25 6 0 10 57 10 150 0 93 -4 150 -10 150 -5 0 -10 -7
-10 -15 0 -20 -14 -19 -31 2 -39 46 -145 57 -199 21z m159 -27 c46 -32 66 -69
65 -120 -2 -179 -257 -190 -281 -13 -15 114 123 200 216 133z"/>
<path d="M10562 1493 c-73 -36 -113 -139 -82 -213 34 -82 137 -128 215 -95 41
17 75 42 75 57 0 14 -18 9 -56 -17 -95 -64 -218 5 -216 123 1 108 120 171 217
114 39 -24 55 -27 55 -12 0 5 -20 21 -43 35 -51 29 -115 33 -165 8z"/>
<path d="M11080 1503 c-35 -13 -72 -47 -90 -83 -70 -137 66 -291 208 -235 135
55 149 240 21 305 -36 19 -106 25 -139 13z m133 -40 c46 -23 69 -70 64 -131
-13 -178 -277 -171 -277 7 0 117 106 178 213 124z"/>
<path d="M12444 1496 c-81 -35 -119 -154 -75 -233 43 -76 132 -110 206 -79 41
18 75 43 75 58 0 14 -18 9 -56 -17 -43 -29 -91 -32 -141 -8 l-35 16 114 114
c121 121 118 115 56 148 -34 19 -103 19 -144 1z m140 -28 c16 -9 7 -21 -80
-109 -53 -54 -101 -96 -106 -93 -4 3 -12 22 -18 42 -31 117 94 216 204 160z"/>
<path d="M14745 1496 c-115 -51 -128 -221 -22 -293 65 -44 145 -39 207 14 l30
25 0 -31 c0 -17 5 -31 10 -31 6 0 10 57 10 150 0 93 -4 150 -10 150 -5 0 -10
-7 -10 -15 0 -8 -4 -15 -10 -15 -5 0 -10 4 -10 8 0 5 -17 18 -39 30 -44 25
-110 28 -156 8z m149 -35 c88 -50 85 -185 -6 -241 -106 -64 -241 39 -208 160
25 91 127 130 214 81z"/>
<path d="M15705 1498 c-64 -35 -97 -90 -97 -160 2 -134 149 -209 262 -134 27
18 39 31 32 38 -6 6 -22 0 -47 -16 -44 -30 -100 -34 -147 -10 l-31 16 112 112
c106 106 111 113 94 128 -40 36 -135 50 -178 26z m139 -30 c17 -9 8 -21 -83
-112 -109 -108 -113 -110 -127 -39 -9 46 1 77 37 118 46 52 113 64 173 33z"/>
<path d="M16844 1492 c-100 -63 -119 -189 -40 -268 37 -37 103 -58 149 -49 49
10 102 49 120 88 37 78 14 169 -55 220 -40 30 -133 34 -174 9z m155 -31 c69
-48 87 -136 42 -200 -72 -101 -230 -70 -256 50 -27 123 113 221 214 150z"/>
<path d="M17715 1496 c-150 -67 -114 -295 51 -321 55 -9 154 34 154 67 0 14
-18 9 -56 -17 -43 -29 -91 -32 -141 -8 l-35 16 114 114 c121 121 118 115 56
148 -33 18 -103 19 -143 1z m139 -28 c16 -9 7 -21 -80 -109 -53 -54 -101 -96
-106 -93 -4 3 -12 22 -18 42 -31 117 94 216 204 160z"/>
<path d="M18069 1487 c-109 -73 -107 -235 4 -294 51 -27 127 -23 177 11 27 18
39 31 32 38 -6 6 -22 0 -47 -16 -99 -68 -236 12 -221 128 13 106 136 167 216
108 16 -12 37 -22 46 -22 15 0 15 2 -2 21 -46 52 -147 65 -205 26z"/>
<path d="M18910 1492 c-93 -51 -118 -178 -49 -256 39 -45 101 -69 156 -61 41
6 103 46 103 66 0 16 -23 10 -48 -13 -19 -19 -35 -23 -83 -23 -54 0 -61 3 -95
37 -30 29 -38 45 -41 85 -8 79 28 130 106 153 36 10 88 -2 123 -29 15 -12 29
-16 37 -12 9 6 3 16 -24 37 -49 37 -133 44 -185 16z"/>
<path d="M19285 1496 c-115 -51 -128 -221 -22 -293 97 -66 226 -16 257 98 37
135 -106 252 -235 195z m149 -35 c88 -50 85 -185 -6 -241 -106 -64 -241 39
-208 160 25 91 127 130 214 81z"/>
<path d="M20567 1487 c-93 -57 -112 -179 -39 -261 55 -61 165 -70 225 -16 40
35 29 50 -13 20 -42 -30 -107 -37 -148 -16 -18 9 -32 20 -32 24 0 3 48 55 106
113 68 68 104 111 99 119 -12 20 -71 40 -117 40 -27 0 -57 -9 -81 -23z m157
-19 c16 -9 7 -21 -80 -109 -54 -54 -101 -99 -105 -99 -12 0 -29 52 -29 88 0
24 9 51 25 75 14 20 27 37 28 37 1 0 20 7 42 14 40 14 83 12 119 -6z"/>
<path d="M21913 1485 c-46 -28 -83 -91 -83 -141 0 -36 30 -103 56 -126 67 -59
160 -59 224 -2 153 139 -20 375 -197 269z m165 -22 c60 -37 81 -136 42 -198
-69 -112 -245 -69 -258 63 -7 76 23 122 95 147 42 15 86 10 121 -12z"/>
<path d="M22522 1493 c-50 -24 -84 -75 -90 -133 -6 -62 10 -100 58 -144 66
-59 161 -56 227 6 l23 21 0 -31 c0 -18 5 -32 10 -32 6 0 10 57 10 150 0 93 -4
150 -10 150 -5 0 -10 -7 -10 -15 0 -11 -12 -7 -47 15 -54 35 -118 40 -171 13z
m150 -29 c62 -32 87 -128 48 -192 -85 -139 -296 -56 -260 104 21 92 121 133
212 88z"/>
<path d="M11443 1485 c-12 -8 -28 -12 -37 -9 -14 5 -16 -11 -16 -145 0 -94 4
-151 10 -151 6 0 10 46 10 119 0 110 2 122 23 146 13 15 37 28 59 32 33 5 41
2 73 -30 l35 -35 0 -116 c0 -71 4 -116 10 -116 6 0 10 49 10 126 l0 126 -34
34 c-28 28 -41 34 -78 34 -24 0 -53 -7 -65 -15z"/>
<path d="M15133 1485 c-12 -8 -28 -12 -37 -9 -14 5 -16 -11 -16 -145 0 -94 4
-151 10 -151 6 0 10 47 10 120 0 114 1 122 24 145 32 32 69 40 107 25 52 -22
59 -42 59 -172 0 -98 3 -118 15 -118 12 0 15 19 15 110 0 127 -13 171 -59 194
-38 20 -100 20 -128 1z"/>
<path d="M18425 1486 c-10 -7 -27 -11 -37 -8 -17 4 -18 -5 -18 -147 0 -128 2
-151 15 -151 13 0 15 21 15 125 0 111 2 127 20 145 27 27 65 35 101 20 52 -22
59 -42 59 -172 0 -98 3 -118 15 -118 12 0 15 19 15 110 0 127 -13 171 -59 194
-37 20 -101 21 -126 2z"/>
<path d="M9950 1473 c-14 -9 -30 -24 -37 -33 -11 -13 -12 -11 -13 13 0 15 -4
27 -10 27 -6 0 -10 -57 -10 -150 0 -93 4 -150 10 -150 6 0 10 37 10 91 0 107
17 152 67 181 34 20 43 38 20 38 -7 0 -24 -8 -37 -17z"/>
<path d="M13321 1464 c-12 -15 -21 -30 -21 -35 0 -28 25 -60 68 -88 28 -18 53
-39 56 -47 30 -78 -57 -130 -106 -64 -23 32 -38 38 -38 16 0 -24 39 -63 67
-69 66 -13 128 51 107 111 -5 14 -35 46 -67 70 -65 49 -76 84 -33 104 31 13
54 5 65 -24 8 -21 10 -21 16 -5 11 27 -22 57 -61 57 -23 0 -38 -7 -53 -26z"/>
<path d="M16021 1464 c-12 -15 -21 -30 -21 -35 0 -28 25 -60 68 -88 28 -18 53
-39 56 -47 31 -80 -55 -129 -108 -62 -14 18 -28 29 -32 25 -14 -14 17 -58 51
-73 47 -19 96 0 115 46 19 46 4 77 -63 128 -65 49 -76 84 -33 104 31 13 54 5
65 -24 8 -21 10 -21 16 -5 11 27 -22 57 -61 57 -23 0 -38 -7 -53 -26z"/>
<path d="M19635 1466 c-28 -42 -16 -76 43 -121 63 -47 76 -67 68 -101 -13 -51
-96 -57 -118 -9 -13 29 -28 33 -28 7 0 -31 46 -66 87 -66 62 0 104 76 73 133
-5 10 -32 33 -59 51 -58 36 -71 63 -45 91 22 25 51 24 66 -1 12 -19 38 -28 38
-12 0 4 -7 18 -16 30 -22 32 -88 31 -109 -2z"/>
<path d="M22312 1465 c-36 -30 -42 -31 -42 -5 0 11 -4 20 -10 20 -6 0 -10 -57
-10 -150 0 -93 4 -150 10 -150 6 0 10 33 10 78 0 42 4 93 10 111 10 38 56 91
77 91 7 0 13 7 13 15 0 22 -25 18 -58 -10z"/>
<path d="M10860 1330 c0 -93 4 -150 10 -150 6 0 10 57 10 150 0 93 -4 150 -10
150 -6 0 -10 -57 -10 -150z"/>
<path d="M13752 1368 c5 -152 30 -188 131 -188 89 0 117 47 117 195 0 58 -4
105 -9 105 -5 0 -10 -49 -13 -109 -3 -99 -6 -112 -27 -135 -44 -47 -112 -44
-153 8 -14 17 -18 42 -18 129 0 92 -2 107 -16 107 -14 0 -16 -14 -12 -112z"/>
<path d="M14530 1330 c0 -93 4 -150 10 -150 6 0 10 57 10 150 0 93 -4 150 -10
150 -6 0 -10 -57 -10 -150z"/>
<path d="M17300 1330 c0 -93 4 -150 10 -150 6 0 10 57 10 150 0 93 -4 150 -10
150 -6 0 -10 -57 -10 -150z"/>
<path d="M18710 1330 c0 -127 2 -150 15 -150 13 0 15 23 15 150 0 127 -2 150
-15 150 -13 0 -15 -23 -15 -150z"/>
<path d="M21510 1330 c0 -127 2 -150 15 -150 13 0 15 23 15 150 0 127 -2 150
-15 150 -13 0 -15 -23 -15 -150z"/>
</g>
</svg>
